<svg xmlns="http://www.w3.org/2000/svg" xmlns:xlink="http://www.w3.org/1999/xlink" width="500" zoomAndPan="magnify" viewBox="0 0 375 374.999991" height="500" preserveAspectRatio="xMidYMid meet" version="1.2"><defs><clipPath id="dd3e22a6f9"><path d="M 187.5 0 C 83.945312 0 0 83.945312 0 187.5 C 0 291.054688 83.945312 375 187.5 375 C 291.054688 375 375 291.054688 375 187.5 C 375 83.945312 291.054688 0 187.5 0 Z M 187.5 0 "/></clipPath></defs><g id="52cd1252f5"><g clip-rule="nonzero" clip-path="url(#dd3e22a6f9)"><rect x="0" width="375" y="0" height="374.999991" style="fill:#000000;fill-opacity:1;stroke:none;"/></g><g style="fill:#08c2cd;fill-opacity:1;"><g transform="translate(67.323434, 216.810949)"><path style="stroke:none" d="M 202.984375 -162.578125 L 202.984375 -132.734375 L 37.609375 -132.734375 L 37.609375 -162.578125 Z M 202.984375 -92.015625 L 202.984375 -62.171875 L 37.609375 -62.171875 L 37.609375 -92.015625 Z M 202.984375 -92.015625 "/></g></g><g style="fill:#08c2cd;fill-opacity:1;"><g transform="translate(67.323434, 370.693525)"><path style="stroke:none" d="M 202.984375 -162.578125 L 202.984375 -132.734375 L 37.609375 -132.734375 L 37.609375 -162.578125 Z M 202.984375 -92.015625 L 202.984375 -62.171875 L 37.609375 -62.171875 L 37.609375 -92.015625 Z M 202.984375 -92.015625 "/></g></g></g></svg>